<svg xmlns="http://www.w3.org/2000/svg" width="20" height="22" viewBox="0 0 20 22">
    <g fill="none" fill-rule="evenodd">
        <g fill="#FFF">
            <g>
                <g>
                    <g>
                        <g>
                            <g>
                                <path d="M5.144 22.324h12.81c1.776 0 3.204-1.435 3.204-3.203V7.78c0-.782-.283-1.538-.81-2.123l-1.75-1.986-1.376-1.589C16.617 1.377 15.73.971 14.804.971h-9.66C3.382.97 1.94 2.405 1.94 4.173v14.948c0 1.768 1.44 3.203 3.203 3.203zM15.6 3.477l1.39 1.6 1.761 1.997c.18.195.27.446.27.707v11.34c0 .589-.475 1.067-1.067 1.067H5.144c-.592 0-1.068-.478-1.068-1.067V4.173c0-.589.476-1.067 1.068-1.067h9.66c.308 0 .604.136.797.371zM8.347 6.31c-.592 0-1.068.478-1.068 1.067 0 .59.476 1.068 1.068 1.068h5.338c.591 0 1.067-.478 1.067-1.068 0-.589-.476-1.067-1.067-1.067H8.347zm-1.068 5.339c0-.59.476-1.068 1.068-1.068h6.405c.592 0 1.068.477 1.068 1.068 0 .589-.476 1.067-1.068 1.067H8.347c-.592 0-1.068-.478-1.068-1.067zm1.068 3.202c-.592 0-1.068.478-1.068 1.068 0 .59.476 1.068 1.068 1.068h6.405c.592 0 1.068-.479 1.068-1.068 0-.59-.476-1.068-1.068-1.068H8.347z" transform="translate(-310 -845) translate(0 415) translate(40 412) translate(250) translate(12 12) translate(6.353 5.294)"/>
                            </g>
                        </g>
                    </g>
                </g>
            </g>
        </g>
    </g>
</svg>
