<svg xmlns="http://www.w3.org/2000/svg" width="18" height="22" viewBox="0 0 18 22">
    <g fill="none" fill-rule="evenodd">
        <g fill="#00A0D8">
            <g>
                <g>
                    <path d="M8.433 2.566c0-.888.771-1.595 1.672-1.595.772 0 1.543.707 1.543 1.595 0 .887-.771 1.608-1.543 1.608-.9 0-1.672-.72-1.672-1.608zm-.386 5.878h-.129c-.514 0-1.029-.489-1.029-1.068 0-.591.515-1.067 1.03-1.067H15.378c.514 0 1.029.476 1.029 1.067 0 .58-.515 1.068-1.03 1.068h-.128v2.843l4.374 5.93c1.543 2.11 0 5.107-2.573 5.107H6.246c-2.573 0-4.116-2.998-2.573-5.107l4.374-5.93V8.444zm2.186 0v3.203c0 .219-.128.45-.257.63l-.257.438h3.859l-.257-.438c-.129-.18-.258-.411-.258-.63V8.444h-2.83zM5.474 18.477l2.573-3.627h7.203l2.573 3.627c.514.708 0 1.711-.772 1.711H6.246c-.772 0-1.286-1.003-.772-1.71zm3.988-2.56c-.515 0-1.03.477-1.03 1.068 0 .58.515 1.068 1.03 1.068.643 0 1.157-.489 1.157-1.068 0-.591-.514-1.067-1.157-1.067zm4.245-12.811c-.515 0-1.03.476-1.03 1.068 0 .578.515 1.067 1.03 1.067.643 0 1.157-.489 1.157-1.067 0-.592-.514-1.068-1.157-1.068z" transform="translate(-464 -131) translate(455 125) translate(6.353 5.294)"/>
                </g>
            </g>
        </g>
    </g>
</svg>
