<svg xmlns="http://www.w3.org/2000/svg" width="25" height="19" viewBox="0 0 25 19">
    <g fill="none" fill-rule="evenodd">
        <g fill="#00A0D8">
            <g>
                <g>
                    <g>
                        <g>
                            <path d="M20.382.03c1.609 0 2.912 1.299 2.912 2.901V13.57c0 1.602-1.303 2.9-2.912 2.9H2.912C1.304 16.47 0 15.172 0 13.57V2.93C0 1.33 1.304.031 2.912.031zm0 1.934H2.912c-.536 0-.97.434-.97.967V13.57c0 .533.434.967.97.967h17.47c.536 0 .97-.434.97-.967V2.93c0-.533-.434-.967-.97-.967zM5.416 9.74c.36-.152.778-.071 1.058.203.38.376.383.989.006 1.368-.173.191-.406.306-.656.325-.128-.002-.253-.028-.37-.078-.12-.044-.228-.114-.32-.203-.401-.354-.438-.965-.083-1.365l.045-.047c.09-.09.2-.158.32-.203zm11.647 0c.361-.152.778-.071 1.058.203.38.376.383.989.006 1.368-.184.184-.434.287-.695.286l.039.039c-.128-.002-.253-.028-.37-.078-.119-.046-.227-.115-.32-.203l-.116-.145c-.037-.054-.066-.112-.087-.174-.029-.055-.048-.113-.059-.174-.004-.065-.004-.129 0-.193-.022-.262.058-.522.224-.726.092-.088.2-.156.32-.203zm-3.475-.038c.536 0 .97.433.97.967 0 .533-.434.967-.97.967H9.706c-.536 0-.97-.434-.97-.967 0-.534.434-.967.97-.967zM5.096 5.107c.38-.379.997-.379 1.378 0 .38.38.38.994 0 1.373-.167.186-.4.301-.65.32-.128-.002-.253-.029-.37-.078-.243-.088-.435-.28-.523-.522-.05-.116-.076-.24-.078-.368-.022-.265.065-.527.243-.725zm3.882 0c.38-.376.995-.373 1.372.006.378.379.375.991-.005 1.367-.18.178-.425.279-.678.28l.039.04c-.127-.002-.252-.029-.369-.078-.117-.05-.226-.118-.32-.203-.088-.092-.157-.2-.204-.32-.05-.115-.076-.24-.078-.367-.022-.265.065-.527.243-.725zm4.203-.203c.36-.152.778-.071 1.058.203.181.183.283.43.281.687-.002.126-.028.251-.078.367-.046.12-.115.227-.203.32-.17.181-.402.295-.65.318-.128-.001-.253-.028-.37-.077-.117-.05-.226-.118-.32-.203-.088-.092-.157-.2-.204-.32-.05-.115-.075-.24-.077-.367-.023-.265.065-.527.242-.725.094-.085.203-.154.32-.203zm3.581.223c.38-.39 1.007-.399 1.398-.02.181.183.283.43.281.687-.002.126-.028.251-.077.367-.089.243-.28.434-.525.522-.113.063-.24.103-.368.116-.259.002-.506-.1-.69-.28-.39-.38-.4-1.003-.019-1.392z" transform="translate(-121 -133) translate(100 85) translate(15 40) translate(6.353 5.294) translate(0 3.397)"/>
                        </g>
                    </g>
                </g>
            </g>
        </g>
    </g>
</svg>
