<svg xmlns="http://www.w3.org/2000/svg" width="22" height="22" viewBox="0 0 22 22">
    <g fill="none" fill-rule="evenodd">
        <g fill="#00A0D8">
            <g>
                <g>
                    <path d="M4.53.97h7.116c1.973 0 3.559 1.594 3.559 3.56v14.235c0 1.965-1.586 3.559-3.559 3.559H4.53c-1.958 0-3.558-1.594-3.558-3.56V4.53C.97 2.564 2.57.971 4.529.971zm0 2.373c-.644 0-1.187.532-1.187 1.186v14.236c0 .654.543 1.186 1.186 1.186h7.117c.658 0 1.187-.532 1.187-1.186V4.529c0-.654-.53-1.186-1.187-1.186H4.53zm1.185 3.559c0-.655.543-1.187 1.187-1.187h2.372c.657 0 1.186.532 1.186 1.187 0 .656-.529 1.186-1.186 1.186H6.902c-.644 0-1.187-.53-1.187-1.186zm13.049 3.558c-.644 0-1.187.532-1.187 1.186 0 .656.543 1.187 1.187 1.187h2.372c.657 0 1.186-.53 1.186-1.187 0-.654-.529-1.186-1.186-1.186h-2.372zm-1.03-2.965c-.314-.568-.128-1.292.444-1.621l2.058-1.186c.557-.327 1.286-.133 1.614.434.33.568.13 1.294-.428 1.62L19.364 7.93c-.572.327-1.3.133-1.63-.434zm.444 9.924c-.572-.328-.758-1.054-.443-1.621.328-.567 1.057-.762 1.629-.433l2.058 1.186c.557.327.757 1.053.428 1.62-.328.568-1.057.763-1.614.434l-2.058-1.186z" transform="translate(-297 -131) translate(290 125) translate(6.353 5.294)"/>
                </g>
            </g>
        </g>
    </g>
</svg>
