<?xml version="1.0" encoding="UTF-8"?>
<svg width="22px" height="22px" viewBox="0 0 22 22" version="1.1" xmlns="http://www.w3.org/2000/svg" xmlns:xlink="http://www.w3.org/1999/xlink">
    <title>7AB4AA6C-FC3C-4498-BA0F-5C64444FC988</title>
    <g id="Page-1" stroke="none" stroke-width="1" fill="none" fill-rule="evenodd">
        <g id="Vaxcheck-1" transform="translate(-47.000000, -583.000000)" fill="#FFFFFF">
            <g id="ButtonsV2" transform="translate(0.000000, 415.000000)">
                <g id="settings" transform="translate(25.000000, 137.000000)">
                    <g id="Send-Message" transform="translate(15.000000, 25.000000)">
                        <g id="Component/icon/ic_Scan" transform="translate(6.352941, 5.294118)">
                            <path d="M0.970588235,3.6409922 C0.970588235,2.16686747 2.15400425,0.970588235 3.63327427,0.970588235 L6.30882353,0.970588235 C6.88766832,0.970588235 7.37647059,1.44909993 7.37647059,2.03952162 C7.37647059,2.62865698 6.88766832,3.10716867 6.30882353,3.10716867 L3.63327427,3.10716867 C3.33742027,3.10716867 3.10588235,3.3451382 3.10588235,3.6409922 L3.10588235,6.31010985 C3.10588235,6.89924522 2.61708009,7.37775691 2.03823529,7.37775691 C1.44652729,7.37775691 0.970588235,6.89924522 0.970588235,6.31010985 L0.970588235,3.6409922 Z M4.17352941,6.31010985 C4.17352941,5.1305528 5.12540751,4.17481573 6.30882353,4.17481573 L7.37647059,4.17481573 C8.54702339,4.17481573 9.51176471,5.1305528 9.51176471,6.31010985 L9.51176471,7.37775691 C9.51176471,8.55731396 8.54702339,9.51305103 7.37647059,9.51305103 L6.30882353,9.51305103 C5.12540751,9.51305103 4.17352941,8.55731396 4.17352941,7.37775691 L4.17352941,6.31010985 Z M6.30882353,7.37775691 L7.37647059,7.37775691 L7.37647059,6.31010985 L6.30882353,6.31010985 L6.30882353,7.37775691 Z M13.7823529,15.9189334 C13.7823529,14.7393763 14.734231,13.7836393 15.9176471,13.7836393 L16.9852941,13.7836393 C18.1558469,13.7836393 19.1205882,14.7393763 19.1205882,15.9189334 L19.1205882,16.9865804 C19.1205882,18.1661375 18.1558469,19.1218746 16.9852941,19.1218746 L15.9176471,19.1218746 C14.734231,19.1218746 13.7823529,18.1661375 13.7823529,16.9865804 L13.7823529,15.9189334 Z M15.9176471,16.9865804 L16.9852941,16.9865804 L16.9852941,15.9189334 L15.9176471,15.9189334 L15.9176471,16.9865804 Z M6.30882353,13.7836393 C5.12540751,13.7836393 4.17352941,14.7393763 4.17352941,15.9189334 L4.17352941,16.9865804 C4.17352941,18.1661375 5.12540751,19.1218746 6.30882353,19.1218746 L7.37647059,19.1218746 C8.54702339,19.1218746 9.51176471,18.1661375 9.51176471,16.9865804 L9.51176471,15.9189334 C9.51176471,14.7393763 8.54702339,13.7836393 7.37647059,13.7836393 L6.30882353,13.7836393 Z M7.37647059,16.9865804 L6.30882353,16.9865804 L6.30882353,15.9189334 L7.37647059,15.9189334 L7.37647059,16.9865804 Z M11.6470588,8.44540397 C12.2259036,8.44540397 12.7147059,8.92262934 12.7147059,9.51305103 L12.7147059,10.5806981 C12.7147059,11.7602551 11.7499646,12.7159922 10.5794118,12.7159922 L5.24117647,12.7159922 C4.64946846,12.7159922 4.17352941,12.2374805 4.17352941,11.6483451 C4.17352941,11.0579235 4.64946846,10.5806981 5.24117647,10.5806981 L10.5794118,10.5806981 L10.5794118,9.51305103 C10.5794118,8.92262934 11.0553508,8.44540397 11.6470588,8.44540397 Z M14.85,4.17481573 C14.258292,4.17481573 13.7823529,4.65204111 13.7823529,5.24246279 C13.7823529,5.83159816 14.258292,6.31010985 14.85,6.31010985 L17.512686,6.31010985 L18.0529412,6.31010985 C18.631786,6.31010985 19.1205882,5.83159816 19.1205882,5.24246279 C19.1205882,4.65204111 18.631786,4.17481573 18.0529412,4.17481573 L17.512686,4.17481573 L14.85,4.17481573 Z M13.7823529,11.6483451 L13.7823529,8.44540397 C13.7823529,7.85498228 14.258292,7.37775691 14.85,7.37775691 L18.0529412,7.37775691 C18.631786,7.37775691 19.1205882,7.85498228 19.1205882,8.44540397 L19.1205882,11.6483451 C19.1205882,12.2374805 18.631786,12.7159922 18.0529412,12.7159922 C17.4612332,12.7159922 16.9852941,12.2374805 16.9852941,11.6483451 L16.9852941,9.51305103 L15.9176471,9.51305103 L15.9176471,11.6483451 C15.9176471,12.2374805 15.4288448,12.7159922 14.85,12.7159922 C14.258292,12.7159922 13.7823529,12.2374805 13.7823529,11.6483451 Z M10.5794118,14.8512863 L10.5794118,15.3851099 C10.5794118,15.9742452 11.0553508,16.4527569 11.6470588,16.4527569 C12.2259036,16.4527569 12.7147059,15.9742452 12.7147059,15.3851099 L12.7147059,14.8512863 C12.7147059,14.2608646 12.2259036,13.7836393 11.6470588,13.7836393 C11.0553508,13.7836393 10.5794118,14.2608646 10.5794118,14.8512863 Z M10.5794118,6.31010985 L10.5794118,5.24246279 C10.5794118,4.65204111 11.0553508,4.17481573 11.6470588,4.17481573 C12.2259036,4.17481573 12.7147059,4.65204111 12.7147059,5.24246279 L12.7147059,6.31010985 C12.7147059,6.89924522 12.2259036,7.37775691 11.6470588,7.37775691 C11.0553508,7.37775691 10.5794118,6.89924522 10.5794118,6.31010985 Z M10.5794118,18.0542275 C10.5794118,17.4650921 11.0553508,16.9865804 11.6470588,16.9865804 C12.2259036,16.9865804 12.7147059,17.4650921 12.7147059,18.0542275 C12.7147059,18.6433629 12.2259036,19.1218746 11.6470588,19.1218746 C11.0553508,19.1218746 10.5794118,18.6433629 10.5794118,18.0542275 Z M19.6479802,0.970588235 C21.1272502,0.970588235 22.3235294,2.16686747 22.3235294,3.6409922 L22.3235294,6.31010985 C22.3235294,6.89924522 21.8347271,7.37775691 21.2558824,7.37775691 C20.6641743,7.37775691 20.1882353,6.89924522 20.1882353,6.31010985 L20.1882353,3.6409922 C20.1882353,3.3451382 19.9438342,3.10716867 19.6479802,3.10716867 L16.9852941,3.10716867 C16.3935861,3.10716867 15.9176471,2.62865698 15.9176471,2.03952162 C15.9176471,1.44909993 16.3935861,0.970588235 16.9852941,0.970588235 L19.6479802,0.970588235 Z M0.970588235,19.6556981 C0.970588235,21.1298228 2.15400425,22.3248157 3.63327427,22.3248157 L6.30882353,22.3248157 C6.88766832,22.3248157 7.37647059,21.8475904 7.37647059,21.2571687 C7.37647059,20.6680333 6.88766832,20.1895216 6.30882353,20.1895216 L3.63327427,20.1895216 C3.33742027,20.1895216 3.10588235,19.9502658 3.10588235,19.6556981 L3.10588235,16.9865804 C3.10588235,16.3974451 2.61708009,15.9189334 2.03823529,15.9189334 C1.44652729,15.9189334 0.970588235,16.3974451 0.970588235,16.9865804 L0.970588235,19.6556981 Z M19.6479802,22.3248157 C21.1272502,22.3248157 22.3235294,21.1298228 22.3235294,19.6556981 L22.3235294,16.9865804 C22.3235294,16.3974451 21.8347271,15.9189334 21.2558824,15.9189334 C20.6641743,15.9189334 20.1882353,16.3974451 20.1882353,16.9865804 L20.1882353,19.6556981 C20.1882353,19.9502658 19.9438342,20.1895216 19.6479802,20.1895216 L16.9852941,20.1895216 C16.3935861,20.1895216 15.9176471,20.6680333 15.9176471,21.2571687 C15.9176471,21.8475904 16.3935861,22.3248157 16.9852941,22.3248157 L19.6479802,22.3248157 Z" id="Shape"></path>
                        </g>
                    </g>
                </g>
            </g>
        </g>
    </g>
</svg>