<svg xmlns="http://www.w3.org/2000/svg" width="22" height="22" viewBox="0 0 22 22">
    <g fill="none" fill-rule="evenodd">
        <g fill="#00A0D8">
            <g>
                <g>
                    <g>
                        <g>
                            <path d="M.97 3.641c0-1.474 1.184-2.67 2.663-2.67H6.31c.579 0 1.067.478 1.067 1.069 0 .589-.488 1.067-1.067 1.067H3.633c-.296 0-.527.238-.527.534v2.67c0 .588-.489 1.067-1.068 1.067-.591 0-1.067-.479-1.067-1.068V3.641zm3.204 2.67c0-1.18.951-2.136 2.135-2.136h1.067c1.171 0 2.136.956 2.136 2.135v1.068c0 1.18-.965 2.135-2.136 2.135H6.31c-1.184 0-2.135-.956-2.135-2.135V6.31zm2.135 1.067h1.067V6.31H6.31v1.068zm7.473 8.54c0-1.179.952-2.134 2.136-2.134h1.067c1.17 0 2.136.955 2.136 2.135v1.068c0 1.18-.965 2.135-2.136 2.135h-1.067c-1.184 0-2.136-.956-2.136-2.135v-1.068zm2.136 1.069h1.067v-1.068h-1.067v1.068zm-9.61-3.203c-1.183 0-2.134.955-2.134 2.135v1.068c0 1.18.951 2.135 2.135 2.135h1.067c1.171 0 2.136-.956 2.136-2.135v-1.068c0-1.18-.965-2.135-2.136-2.135H6.31zm1.068 3.203H6.31v-1.068h1.067v1.068zm4.271-8.542c.579 0 1.068.478 1.068 1.068v1.068c0 1.18-.965 2.135-2.136 2.135H5.241c-.592 0-1.067-.479-1.067-1.068 0-.59.475-1.067 1.067-1.067h5.338V9.513c0-.59.476-1.068 1.068-1.068zm3.203-4.27c-.592 0-1.068.477-1.068 1.067s.476 1.068 1.068 1.068h3.203c.579 0 1.068-.478 1.068-1.068 0-.59-.49-1.067-1.068-1.067H14.85zm-1.068 7.473V8.445c0-.59.476-1.067 1.068-1.067h3.203c.579 0 1.068.477 1.068 1.067v3.203c0 .59-.49 1.068-1.068 1.068-.592 0-1.068-.479-1.068-1.068V9.513h-1.067v2.135c0 .59-.49 1.068-1.068 1.068-.592 0-1.068-.479-1.068-1.068zm-3.203 3.203v.534c0 .59.476 1.068 1.068 1.068.579 0 1.068-.479 1.068-1.068v-.534c0-.59-.49-1.067-1.068-1.067-.592 0-1.068.477-1.068 1.067zm0-8.54V5.241c0-.59.476-1.067 1.068-1.067.579 0 1.068.477 1.068 1.067V6.31c0 .59-.49 1.068-1.068 1.068-.592 0-1.068-.479-1.068-1.068zm0 11.743c0-.589.476-1.067 1.068-1.067.579 0 1.068.478 1.068 1.067 0 .59-.49 1.068-1.068 1.068-.592 0-1.068-.479-1.068-1.068zM19.648.971c1.48 0 2.676 1.196 2.676 2.67v2.67c0 .588-.49 1.067-1.068 1.067-.592 0-1.068-.479-1.068-1.068V3.641c0-.296-.244-.534-.54-.534h-2.663c-.591 0-1.067-.478-1.067-1.067 0-.59.476-1.07 1.067-1.07h2.663zM.971 19.656c0 1.474 1.183 2.669 2.662 2.669H6.31c.579 0 1.067-.477 1.067-1.068 0-.589-.488-1.067-1.067-1.067H3.633c-.296 0-.527-.24-.527-.534v-2.67c0-.589-.489-1.067-1.068-1.067-.591 0-1.067.478-1.067 1.068v2.669zm18.677 2.669c1.48 0 2.676-1.195 2.676-2.67v-2.668c0-.59-.49-1.068-1.068-1.068-.592 0-1.068.478-1.068 1.068v2.669c0 .294-.244.534-.54.534h-2.663c-.591 0-1.067.478-1.067 1.067 0 .59.476 1.068 1.067 1.068h2.663z" transform="translate(-47 -583) translate(0 415) translate(25 137) translate(15 25) translate(6.353 5.294)"/>
                        </g>
                    </g>
                </g>
            </g>
        </g>
    </g>
</svg>
